<?xml version="1.0" encoding="utf-8"?><svg viewBox="0 0 100 100" xmlns="http://www.w3.org/2000/svg" width="200px" height="200px" xmlns:xlink="http://www.w3.org/1999/xlink" style="width:100%;height:100%;background-size:initial;background-repeat-y:initial;background-repeat-x:initial;background-position-y:initial;background-position-x:initial;background-origin:initial;background-color:initial;background-clip:initial;background-attachment:initial;animation-play-state:paused" ><g class="ldl-scale" style="transform-origin:50% 50%;transform:rotate(0deg) scale(0.8, 0.8);animation-play-state:paused" ><ellipse stroke-miterlimit="10" stroke-linejoin="round" stroke-linecap="round" stroke-width="3" stroke="#333" fill="#666" ry="6.4" rx="29.7" cy="84.8" cx="50" style="stroke:rgb(51, 51, 51);fill:rgb(102, 102, 102);animation-play-state:paused" ></ellipse>
<g style="animation-play-state:paused" ><path stroke-miterlimit="10" stroke-linejoin="round" stroke-linecap="round" stroke-width="3" stroke="#333" fill="#e0e0e0" d="M61.9 30.1h0c0-3.3 2.6-5.9 5.9-5.9h0c2.1 0 3.8-1.7 3.8-3.8v-1.6c0-2.1-1.7-3.8-3.8-3.8H32.2c-2.1 0-3.8 1.7-3.8 3.8v1.6c0 2.1 1.7 3.8 3.8 3.8h0c3.3 0 5.9 2.6 5.9 5.9v0c0 1.8-.8 3.5-2.2 4.6-7.3 5.9-12.1 16.1-12.1 27.8C23.8 80.7 31.9 85 50 85c17.9 0 26.2-4.3 26.2-22.5 0-11.7-4.8-21.9-12.1-27.8-1.4-1.1-2.2-2.8-2.2-4.6z" style="stroke:rgb(51, 51, 51);fill:rgb(224, 224, 224);animation-play-state:paused" ></path>
<path stroke-miterlimit="10" stroke-linejoin="round" stroke-linecap="round" stroke-width="3" stroke="#fff" fill="#e0e0e0" d="M30.9 53c-.2.7-.4 1.4-.5 2.1" style="stroke:rgb(255, 255, 255);fill:rgb(224, 224, 224);animation-play-state:paused" ></path>
<path stroke-miterlimit="10" stroke-linejoin="round" stroke-linecap="round" stroke-width="3" stroke="#fff" fill="#e0e0e0" d="M39.9 38.9c-2.7 2.1-4.9 4.9-6.7 8.2" style="stroke:rgb(255, 255, 255);fill:rgb(224, 224, 224);animation-play-state:paused" ></path>
<path stroke-miterlimit="10" stroke-linejoin="round" stroke-linecap="round" stroke-width="3" stroke="#000" opacity=".1" d="M64.1 34.7c-1.4-1.1-2.2-2.8-2.2-4.6 0-3.3 2.6-5.9 5.9-5.9 2.1 0 3.8-1.7 3.8-3.8v-1.6c0-2.1-1.7-3.8-3.8-3.8h-9.7c1.8 0 3.2 1.7 3.2 3.8v1.6c0 2.1-1.4 3.8-3.2 3.8-2.7 0-4.9 2.6-4.9 5.9 0 1.8.7 3.5 1.8 4.6 6.1 5.9 10.1 16.1 10.1 27.8 0 16.9-6 21.8-18.8 22.4 1.2 0 2.4.1 3.7.1 17.9 0 26.2-4.3 26.2-22.5 0-11.7-4.8-21.9-12.1-27.8z" style="animation-play-state:paused" ></path></g>
<metadata xmlns:d="https://loading.io/stock/" style="animation-play-state:paused" ><d:name style="animation-play-state:paused" >pottery</d:name>


<d:tags style="animation-play-state:paused" >pottery,flowerpot,florist,blossom,bloom,bud,petal,bonsai,bottle,vase,potion</d:tags>


<d:license style="animation-play-state:paused" >by</d:license>


<d:slug style="animation-play-state:paused" >gqm2di</d:slug></metadata></g><!-- generated by https://loading.io/ --></svg>